<?xml version="1.0" encoding="utf-8"?>
<!-- Generator: Adobe Illustrator 16.0.0, SVG Export Plug-In . SVG Version: 6.00 Build 0)  -->
<svg version="1.2" baseProfile="tiny" id="Layer_1" xmlns="http://www.w3.org/2000/svg" xmlns:xlink="http://www.w3.org/1999/xlink"
	 x="0px" y="0px" width="800px" height="800px" viewBox="0 0 800 800" xml:space="preserve">
<g>
	<polygon fill="#002475" points="95.714,366.229 23.242,478.439 72.777,478.439 142.443,371.168 	"/>
	<path fill="#002475" d="M97.402,363.711c0,0,17.104-27.88,21.342-33.382c4.056-5.562,9.433-7.933,15.08-7.933h74.773v37.967
		c0,0,3.802-14.569,10.503-21.49c6.282-6.52,14.666-15.552,33.819-16.747H393.77v41.584H97.402z"/>
	<path fill="#002475" d="M776.758,363.747v-41.62H626.054c-19.1,1.195-27.519,10.227-33.817,16.743
		c-6.705,6.924-10.472,21.494-10.472,21.494v3.348L776.758,363.747z"/>
	<rect x="401.119" y="322.328" fill="#002475" width="42.117" height="41.383"/>
	<rect x="539.387" y="322.328" fill="#002475" width="42.072" height="41.383"/>
	<path fill="#002475" d="M581.459,378.65l-41.365-2.444v48.013c0,0-0.126,13.834-13.633,13.834H455.36
		c0,0-12.038-0.98-12.038-13.706v-54.657l-41.784-2.992v73.635c6.755,35.318,38.979,38.038,38.979,38.038s3.278,0.218,3.817,0.271
		h96.029c0,0,41.095-3.278,41.095-42.314V378.65z"/>
	<path fill="#002475" d="M165.851,478.465h196.964c34.307-6.809,37.889-37.627,37.889-37.627c1.616-9.158,0.672-16.565,0.672-16.565
		c-1.032-6.175-12.892-33.438-38.635-35.81c-15.356-1.415-151.993-12.15-151.993-12.15c2.644,13.547,8.804,20.384,12.896,24.301
		c9.489,9.014,24.581,11.568,24.581,11.568c3.646,0.344,105.302,8.667,105.302,8.667c3.237,0.165,9.379,0.982,9.305,8.925
		c0,0.964-0.888,7.967-8.689,7.967H206.805v-61.774l-40.954-2.962V478.465z"/>
	<path fill="#002475" d="M581.861,437.489h146.314c3.371,0,7.009-1.976,7.009-1.976c1.521-1.356,2.756-3.834,2.756-6.221
		c0-7.93-6.607-8.279-9.923-8.444c0,0-102.798-8.49-106.382-8.779c0,0-14.247-2.17-23.756-11.22
		c-4.126-3.879-9.593-8.11-13.666-22.086c0,0,137.414,8.019,152.677,9.432c25.779,2.44,37.854,27.68,38.941,36.077
		c0,0,1.106,7.589-0.236,16.913c0,0-5.34,35.479-43.144,37.639H581.765L581.861,437.489z"/>
	<polygon fill="#002475" points="95.714,366.229 23.242,478.439 72.777,478.439 142.443,371.168 	"/>
	<path fill="#002475" d="M97.402,363.711c0,0,17.104-27.88,21.342-33.382c4.056-5.562,9.433-7.933,15.08-7.933h74.773v37.967
		c0,0,3.802-14.569,10.503-21.49c6.282-6.52,14.666-15.552,33.819-16.747H393.77v41.584H97.402z"/>
	<path fill="#002475" d="M776.758,363.747v-41.62H626.054c-19.1,1.195-27.519,10.227-33.817,16.743
		c-6.705,6.924-10.472,21.494-10.472,21.494v3.348L776.758,363.747z"/>
	<rect x="401.119" y="322.328" fill="#002475" width="42.117" height="41.383"/>
	<rect x="539.387" y="322.328" fill="#002475" width="42.072" height="41.383"/>
	<path fill="#002475" d="M581.459,378.65l-41.365-2.444v48.013c0,0-0.126,13.834-13.633,13.834H455.36
		c0,0-12.038-0.98-12.038-13.706v-54.657l-41.784-2.992v73.635c6.755,35.318,38.979,38.038,38.979,38.038s3.278,0.218,3.817,0.271
		h96.029c0,0,41.095-3.278,41.095-42.314V378.65z"/>
	<path fill="#002475" d="M165.851,478.465h196.964c34.307-6.809,37.889-37.627,37.889-37.627c1.616-9.158,0.672-16.565,0.672-16.565
		c-1.032-6.175-12.892-33.438-38.635-35.81c-15.356-1.415-151.993-12.15-151.993-12.15c2.644,13.547,8.804,20.384,12.896,24.301
		c9.489,9.014,24.581,11.568,24.581,11.568c3.646,0.344,105.302,8.667,105.302,8.667c3.237,0.165,9.379,0.982,9.305,8.925
		c0,0.964-0.888,7.967-8.689,7.967H206.805v-61.774l-40.954-2.962V478.465z"/>
	<path fill="#002475" d="M581.861,437.489h146.314c3.371,0,7.009-1.976,7.009-1.976c1.521-1.356,2.756-3.834,2.756-6.221
		c0-7.93-6.607-8.279-9.923-8.444c0,0-102.798-8.49-106.382-8.779c0,0-14.247-2.17-23.756-11.22
		c-4.126-3.879-9.593-8.11-13.666-22.086c0,0,137.414,8.019,152.677,9.432c25.779,2.44,37.854,27.68,38.941,36.077
		c0,0,1.106,7.589-0.236,16.913c0,0-5.34,35.479-43.144,37.639H581.765L581.861,437.489z"/>
</g>
</svg>
